<?xml version="1.0" encoding="utf-8"?>
<!-- Generator: Adobe Illustrator 19.1.0, SVG Export Plug-In . SVG Version: 6.00 Build 0)  -->
<svg version="1.1" id="Layer_1" xmlns="http://www.w3.org/2000/svg" xmlns:xlink="http://www.w3.org/1999/xlink" x="0px" y="0px"
	 viewBox="0 0 215 48.2" style="enable-background:new 0 0 215 48.2;" xml:space="preserve">
<style type="text/css">
	.st0{fill:#462C6B;}
	.st1{fill:url(#SVGID_1_);}
	.st2{fill:#FEBF10;}
	.st3{fill:url(#SVGID_2_);}
	.st4{fill:url(#SVGID_3_);}
	.st5{fill:url(#SVGID_4_);}
	.st6{fill:url(#SVGID_5_);}
	.st7{fill:url(#SVGID_6_);}
	.st8{fill:url(#SVGID_7_);}
</style>
<g>
	<g>
		<g>
			<path class="st0" d="M4.8,19.4v11.7H0V1.9h8.3c3.8,0,6.6,0.7,8.4,2.1s2.7,3.5,2.7,6.4c0,3.6-1.9,6.2-5.7,7.8l8.3,12.9h-5.4
				l-7-11.7H4.8z M4.8,15.5h3.3c2.2,0,3.8-0.4,4.8-1.2c1-0.8,1.5-2.1,1.5-3.7c0-1.7-0.5-2.8-1.6-3.6c-1.1-0.7-2.7-1.1-4.9-1.1H4.8
				V15.5z"/>
			<path class="st0" d="M35.3,31.5c-3.4,0-6.1-1-8.1-3c-1.9-2-2.9-4.8-2.9-8.3c0-3.6,0.9-6.4,2.7-8.5c1.8-2.1,4.3-3.1,7.4-3.1
				c2.9,0,5.2,0.9,6.9,2.7c1.7,1.8,2.5,4.2,2.5,7.3v2.5H29.2c0.1,2.1,0.6,3.8,1.7,4.9c1.1,1.2,2.6,1.7,4.6,1.7
				c1.3,0,2.5-0.1,3.6-0.4c1.1-0.2,2.3-0.7,3.6-1.2V30c-1.1,0.5-2.3,0.9-3.5,1.2C38.1,31.4,36.8,31.5,35.3,31.5z M34.4,12.1
				c-1.5,0-2.7,0.5-3.6,1.4c-0.9,0.9-1.4,2.3-1.6,4.1h10c0-1.8-0.5-3.2-1.3-4.1C37.1,12.6,35.9,12.1,34.4,12.1z"/>
			<path class="st0" d="M57.5,27.7c1.1,0,2.3-0.2,3.4-0.5v3.5c-0.5,0.2-1.2,0.4-2,0.6c-0.8,0.2-1.7,0.2-2.5,0.2
				c-4.4,0-6.7-2.3-6.7-7V12.5h-3v-2.1l3.2-1.7l1.6-4.7h2.9V9h6.3v3.6h-6.3v11.8c0,1.1,0.3,2,0.8,2.5C55.8,27.4,56.5,27.7,57.5,27.7
				z"/>
			<path class="st0" d="M84.7,31.1H80V17.5c0-1.7-0.3-3-1-3.8c-0.7-0.8-1.8-1.3-3.3-1.3c-2,0-3.4,0.6-4.3,1.8
				c-0.9,1.2-1.4,3.2-1.4,5.9v11h-4.7V0H70v7.9c0,1.3-0.1,2.6-0.2,4.1h0.3c0.6-1.1,1.5-1.9,2.7-2.5c1.1-0.6,2.5-0.9,4-0.9
				c5.4,0,8,2.7,8,8.1V31.1z"/>
			<path class="st0" d="M91,3.1c0-0.8,0.2-1.5,0.7-1.9c0.5-0.5,1.1-0.7,2-0.7c0.8,0,1.5,0.2,1.9,0.7c0.5,0.5,0.7,1.1,0.7,1.9
				c0,0.8-0.2,1.4-0.7,1.9c-0.5,0.5-1.1,0.7-1.9,0.7c-0.9,0-1.5-0.2-2-0.7C91.2,4.6,91,3.9,91,3.1z M96,31.1h-4.7V9H96V31.1z"/>
			<path class="st0" d="M122.1,31.1h-4.7V17.5c0-1.7-0.3-3-1-3.8c-0.7-0.8-1.8-1.3-3.3-1.3c-2,0-3.4,0.6-4.4,1.8
				c-0.9,1.2-1.4,3.1-1.4,5.9v11h-4.7V9h3.7l0.7,2.9h0.2c0.7-1.1,1.6-1.9,2.8-2.4c1.2-0.6,2.6-0.9,4.1-0.9c5.3,0,8,2.7,8,8.1V31.1z"
				/>
			<path class="st0" d="M133.2,19.4l2.7-3.3l6.7-7.1h5.4l-8.9,9.5l9.4,12.6H143l-7.1-9.7l-2.6,2.1v7.6h-4.7V0h4.7v15.2l-0.2,4.3
				H133.2z"/>
		</g>
		<g>
			<path d="M83.7,44.7c0,1.1-0.4,1.9-1.2,2.5c-0.8,0.6-1.8,0.9-3.1,0.9c-1.6,0-2.7-0.2-3.6-0.5v-0.9c0.9,0.4,2.1,0.6,3.5,0.6
				c1,0,1.9-0.2,2.5-0.7c0.6-0.5,0.9-1.1,0.9-1.9c0-0.5-0.1-0.9-0.3-1.2c-0.2-0.3-0.5-0.6-1-0.9c-0.5-0.3-1.1-0.5-2-0.8
				c-1.3-0.4-2.2-0.9-2.7-1.4c-0.5-0.5-0.7-1.2-0.7-2.1c0-0.9,0.4-1.7,1.1-2.3c0.7-0.6,1.7-0.9,2.9-0.9c1.2,0,2.3,0.2,3.4,0.7
				L83,36.5c-1.1-0.4-2.1-0.7-3-0.7c-0.9,0-1.7,0.2-2.2,0.7c-0.6,0.4-0.8,1-0.8,1.8c0,0.5,0.1,0.9,0.3,1.2c0.2,0.3,0.4,0.6,0.8,0.8
				s1.1,0.5,2,0.9c1,0.3,1.7,0.7,2.2,1c0.5,0.3,0.9,0.7,1.1,1.1S83.7,44.1,83.7,44.7z"/>
			<path d="M94,43.3c0,1.5-0.4,2.7-1.1,3.6c-0.7,0.9-1.8,1.3-3.1,1.3c-0.8,0-1.6-0.2-2.2-0.6c-0.6-0.4-1.1-1-1.5-1.7
				c-0.3-0.7-0.5-1.6-0.5-2.6c0-1.5,0.4-2.7,1.1-3.6c0.7-0.9,1.8-1.3,3.1-1.3c1.3,0,2.3,0.4,3.1,1.3C93.6,40.5,94,41.7,94,43.3z
				 M86.5,43.3c0,1.3,0.3,2.3,0.9,3c0.6,0.7,1.4,1.1,2.4,1.1c1,0,1.8-0.4,2.4-1.1c0.6-0.7,0.9-1.7,0.9-3c0-1.3-0.3-2.3-0.9-3
				c-0.6-0.7-1.4-1.1-2.4-1.1c-1,0-1.8,0.4-2.4,1.1C86.8,40.9,86.5,41.9,86.5,43.3z"/>
			<path d="M97.4,48h-0.9V34.5h0.9V48z"/>
			<path d="M101.3,38.5v6.1c0,0.9,0.2,1.6,0.6,2.1c0.4,0.4,1,0.6,1.9,0.6c1.1,0,2-0.3,2.5-0.9c0.5-0.6,0.8-1.5,0.8-2.8v-5.2h0.9V48
				h-0.7l-0.2-1.3H107c-0.6,1-1.7,1.5-3.3,1.5c-2.1,0-3.2-1.1-3.2-3.4v-6.2H101.3z"/>
			<path d="M113.6,47.4c0.5,0,1,0,1.4-0.1v0.7c-0.4,0.1-0.9,0.2-1.4,0.2c-0.8,0-1.4-0.2-1.8-0.7c-0.4-0.4-0.6-1.1-0.6-2.1v-6.1h-1.4
				v-0.5l1.4-0.4l0.4-2.1h0.4v2.3h2.8v0.7H112v6c0,0.7,0.1,1.3,0.4,1.6C112.6,47.2,113,47.4,113.6,47.4z"/>
			<path d="M116.9,35.9c0-0.6,0.2-0.8,0.5-0.8c0.2,0,0.3,0.1,0.4,0.2c0.1,0.1,0.2,0.4,0.2,0.6c0,0.3-0.1,0.5-0.2,0.6
				c-0.1,0.2-0.2,0.2-0.4,0.2C117.1,36.8,116.9,36.5,116.9,35.9z M117.9,48h-0.9v-9.4h0.9V48z"/>
			<path d="M128.9,43.3c0,1.5-0.4,2.7-1.1,3.6c-0.7,0.9-1.8,1.3-3.1,1.3c-0.8,0-1.6-0.2-2.2-0.6c-0.6-0.4-1.1-1-1.5-1.7
				c-0.3-0.7-0.5-1.6-0.5-2.6c0-1.5,0.4-2.7,1.1-3.6c0.7-0.9,1.8-1.3,3.1-1.3c1.3,0,2.3,0.4,3.1,1.3
				C128.5,40.5,128.9,41.7,128.9,43.3z M121.4,43.3c0,1.3,0.3,2.3,0.9,3c0.6,0.7,1.4,1.1,2.4,1.1c1,0,1.8-0.4,2.4-1.1
				c0.6-0.7,0.9-1.7,0.9-3c0-1.3-0.3-2.3-0.9-3c-0.6-0.7-1.4-1.1-2.4-1.1c-1,0-1.8,0.4-2.4,1.1C121.7,40.9,121.4,41.9,121.4,43.3z"
				/>
			<path d="M138.1,48v-6.1c0-0.9-0.2-1.6-0.6-2.1c-0.4-0.4-1-0.6-1.9-0.6c-1.1,0-2,0.3-2.5,0.9c-0.5,0.6-0.8,1.5-0.8,2.8V48h-0.9
				v-9.4h0.7l0.2,1.3h0.1c0.6-1,1.7-1.5,3.3-1.5c2.1,0,3.2,1.1,3.2,3.4V48H138.1z"/>
			<path d="M147.8,45.5c0,0.8-0.3,1.5-1,2c-0.6,0.5-1.6,0.7-2.7,0.7c-1.3,0-2.3-0.2-3-0.6v-0.9c0.9,0.5,2,0.7,3,0.7
				c0.9,0,1.6-0.2,2.1-0.5c0.5-0.3,0.7-0.7,0.7-1.2c0-0.5-0.2-0.9-0.6-1.2c-0.4-0.3-1-0.6-1.9-1c-0.9-0.3-1.6-0.6-2-0.9
				c-0.4-0.2-0.7-0.5-0.9-0.8c-0.2-0.3-0.3-0.7-0.3-1.1c0-0.7,0.3-1.3,0.9-1.7c0.6-0.4,1.4-0.6,2.5-0.6c1,0,2,0.2,2.9,0.6l-0.3,0.8
				c-0.9-0.4-1.8-0.6-2.6-0.6c-0.8,0-1.4,0.1-1.8,0.4c-0.5,0.3-0.7,0.6-0.7,1.1c0,0.5,0.2,0.9,0.5,1.2c0.4,0.3,1,0.6,2.1,1
				c0.9,0.3,1.5,0.6,1.9,0.8c0.4,0.2,0.7,0.5,0.9,0.8C147.7,44.7,147.8,45.1,147.8,45.5z"/>
		</g>
		<g>
			<g>
				<g>
					<linearGradient id="SVGID_1_" gradientUnits="userSpaceOnUse" x1="182.259" y1="57.6088" x2="201.7284" y2="23.3768">
						<stop  offset="0" style="stop-color:#1C3664"/>
						<stop  offset="0.935" style="stop-color:#0CB2E2"/>
					</linearGradient>
					<path class="st1" d="M191.4,23.9l-6.6,11.7c0,0,3.2,3.6,4.9,5.3c1.7,1.7,6.4,5.9,9.9,2.2c1.3-1.3,2.6-3.2,3.7-5
						c-3-3.6-6.3-7.5-9.3-11C193.2,26,192.3,24.9,191.4,23.9z"/>
				</g>
				<g>
					<polygon points="175.3,8 175.3,8 175.3,8 					"/>
					<path class="st2" d="M187.3,18.8c1.3,1.6,2.7,3.3,4.1,5.1c0.9,1.1,1.8,2.1,2.7,3.2c3,3.6,6.3,7.5,9.3,11c2,2.4,3.9,4.6,5.4,6.4
						c1.7,2,4.9,0.9,5-1.6c0.4-5.8,0.9-12.7,1.1-15.7c0.1-1-0.3-2.1-0.9-2.9L201.2,9c-0.4-0.4-0.9-0.7-1.4-0.7l-21-0.3l-3.4,0l0,0
						C178.4,8.1,182.2,12.6,187.3,18.8z"/>
				</g>
			</g>
			<g>
				<g>
					<path class="st0" d="M171,44.3l25.5,0.3c-4.5-0.2-9.5-6.4-15.7-14c-1.3-1.6-2.7-3.3-4.1-4.9c-2.6-3.1-5.4-6.4-8-9.5
						c-1.7-2.1-3.4-4-4.9-5.8c-2.3-2.7-6.8-1.3-7,2.3l-1,13.7c0,0.5,0.1,1.1,0.5,1.5l13.4,15.9C170,44.1,170.5,44.3,171,44.3z"/>
				</g>
			</g>
		</g>
	</g>
	<g>
		<g>
			<linearGradient id="SVGID_2_" gradientUnits="userSpaceOnUse" x1="197.923" y1="31.1193" x2="184.5925" y2="44.4498">
				<stop  offset="0" style="stop-color:#00B0DF"/>
				<stop  offset="1" style="stop-color:#052460"/>
			</linearGradient>
			<path class="st3" d="M191.4,23.9l-6.5,11.6c0,0,3.1,3.7,4.9,5.4c1.7,1.7,6.4,5.9,9.9,2.2c1.3-1.3,2.6-3.2,3.7-5
				c-3-3.6-6.3-7.5-9.3-11C193.2,26,192.3,24.9,191.4,23.9z"/>
		</g>
		<g>
			<linearGradient id="SVGID_3_" gradientUnits="userSpaceOnUse" x1="197.2224" y1="31.706" x2="188.6569" y2="40.8582">
				<stop  offset="0" style="stop-color:#00B0DF"/>
				<stop  offset="1" style="stop-color:#00B0DF;stop-opacity:0"/>
			</linearGradient>
			<path class="st4" d="M191.4,23.9l-6.5,11.6c0,0,3.1,3.7,4.9,5.4c1.7,1.7,6.4,5.9,9.9,2.2c1.3-1.3,2.6-3.2,3.7-5
				c-3-3.6-6.3-7.5-9.3-11C193.2,26,192.3,24.9,191.4,23.9z"/>
		</g>
		<g>
			<linearGradient id="SVGID_4_" gradientUnits="userSpaceOnUse" x1="185.1616" y1="44.924" x2="197.5057" y2="31.3455">
				<stop  offset="0" style="stop-color:#052460"/>
				<stop  offset="1" style="stop-color:#052460;stop-opacity:0"/>
			</linearGradient>
			<path class="st5" d="M191.4,23.9l-6.5,11.6c0,0,3.1,3.7,4.9,5.4c1.7,1.7,6.4,5.9,9.9,2.2c1.3-1.3,2.6-3.2,3.7-5
				c-3-3.6-6.3-7.5-9.3-11C193.2,26,192.3,24.9,191.4,23.9z"/>
		</g>
	</g>
	<g>
		<linearGradient id="SVGID_5_" gradientUnits="userSpaceOnUse" x1="182.6761" y1="13.4049" x2="174.5108" y2="22.6736">
			<stop  offset="0" style="stop-color:#F57E25"/>
			<stop  offset="1" style="stop-color:#FFCF01"/>
		</linearGradient>
		<path class="st6" d="M180.8,30.6l6.4-11.8c-5-6.2-8.9-10.7-12-10.7c-0.7,0.1-1.3,0.3-1.7,0.6c-1.5,1.5-3.3,4.5-4.9,7.5
			c2.6,3.1,5.4,6.4,8,9.5C178.1,27.3,179.5,29,180.8,30.6z"/>
	</g>
	<g>
		<linearGradient id="SVGID_6_" gradientUnits="userSpaceOnUse" x1="182.6761" y1="13.4049" x2="174.5108" y2="22.6736">
			<stop  offset="0" style="stop-color:#F57E25"/>
			<stop  offset="1" style="stop-color:#F57E25;stop-opacity:0"/>
		</linearGradient>
		<path class="st7" d="M180.8,30.6l6.4-11.8c-5-6.2-8.9-10.7-12-10.7c-0.7,0.1-1.3,0.3-1.7,0.6c-1.5,1.5-3.3,4.5-4.9,7.5
			c2.6,3.1,5.4,6.4,8,9.5C178.1,27.3,179.5,29,180.8,30.6z"/>
	</g>
	<g>
		<linearGradient id="SVGID_7_" gradientUnits="userSpaceOnUse" x1="174.3606" y1="22.9919" x2="182.0706" y2="13.8036">
			<stop  offset="0" style="stop-color:#FFCF01"/>
			<stop  offset="1" style="stop-color:#FFCF01;stop-opacity:0"/>
		</linearGradient>
		<path class="st8" d="M180.8,30.6l6.4-11.8c-5-6.2-8.9-10.7-12-10.7c-0.7,0.1-1.3,0.3-1.7,0.6c-1.5,1.5-3.3,4.5-4.9,7.5
			c2.6,3.1,5.4,6.4,8,9.5C178.1,27.3,179.5,29,180.8,30.6z"/>
	</g>
</g>
</svg>
